# xmcd
#
# Track frame offsets: 
#        150
#        18024
#        24029
#        38939
#        47630
#        58261
#        68186
#        84697
#        94712
#        106240
#        119444
#        129026
#        138742
#        151621
#        165068
#
# Disc length: 2373 seconds
#
# Revision: 0
# Processed by: cddbd v1.5.2PL0 Copyright (c) Steve Scherf et al.
# Submitted via: ExactAudioCopy v1.0b3
#
DISCID=ae09430f
DTITLE=Arca - Xen
DYEAR=2014
DGENRE=Experimental
TTITLE0=Now You Know
TTITLE1=Held Apart
TTITLE2=Xen
TTITLE3=Sad Bitch
TTITLE4=Sisters
TTITLE5=Slit Thru
TTITLE6=Failed
TTITLE7=Family Violence
TTITLE8=Thievery
TTITLE9=Lonely Thugg
TTITLE10=Fish
TTITLE11=Wound
TTITLE12=Bullet Chained
TTITLE13=Tongue
TTITLE14=Promise
EXTD=
EXTT0=
EXTT1=
EXTT2=
EXTT3=
EXTT4=
EXTT5=
EXTT6=
EXTT7=
EXTT8=
EXTT9=
EXTT10=
EXTT11=
EXTT12=
EXTT13=
EXTT14=
PLAYORDER=
